<svg id="Layer_1" data-name="Layer 1" xmlns="http://www.w3.org/2000/svg" viewBox="0 0 278.93 132.91">
  <defs>
    <style>
      .cls-1 {
        font-size: 100.89px;
        font-family: Quicksand-Regular, Quicksand;
        letter-spacing: -0.01em;
      }

      .cls-1, .cls-2, .cls-4 {
        fill: #fff;
      }

      .cls-2, .cls-3, .cls-4 {
        stroke: #25245a;
      }

      .cls-2, .cls-3 {
        stroke-linejoin: round;
      }

      .cls-3 {
        fill: none;
      }

      .cls-4 {
        stroke-miterlimit: 10;
      }
    </style>
  </defs>
  <text class="cls-1" transform="translate(0 85.76) scale(1.1 1)">Planit</text>
  <path class="cls-2" d="M382.6,333l.74,9.1,4.62-6.72Z" transform="translate(-163.23 -325.24)"/>
  <polygon class="cls-2" points="242.1 22.52 229.82 29.47 222.59 27.08 242.1 22.52"/>
  <polygon class="cls-2" points="224.73 10.08 237.33 11.58 230.52 17.91 224.73 10.08"/>
  <polygon class="cls-2" points="230.52 17.91 227.53 21.37 222.59 27.08 221.54 22.72 220.12 16.8 230.52 17.91"/>
  <polygon class="cls-2" points="242.1 22.52 222.59 27.08 230.52 17.91 242.1 22.52"/>
  <polygon class="cls-2" points="237.33 11.58 233.95 2.14 224.73 10.08 237.33 11.58"/>
  <path class="cls-2" d="M382.6,333l14.58-5.57L388,335.33Z" transform="translate(-163.23 -325.24)"/>
  <polygon class="cls-2" points="237.33 11.58 230.52 17.91 243.94 14.75 237.33 11.58"/>
  <polygon class="cls-2" points="242.1 22.52 243.94 14.75 230.52 17.91 242.1 22.52"/>
  <polyline class="cls-2" points="243.94 14.75 237.33 11.58 233.97 2.18 233.96 2.16 233.95 2.14 233.98 2.18 233.95 2.14 233.98 2.18"/>
  <polyline class="cls-2" points="220.12 16.8 219.37 7.7 216.97 15.99 220.12 16.8 222.59 27.08 220.12 16.8"/>
  <polyline class="cls-2" points="233.95 2.15 228.85 1.78 224.22 3.27 219.37 7.7 233.95 2.15"/>
  <polygon class="cls-2" points="243.94 14.75 233.98 2.18 240.32 6.11 243.94 14.75"/>
  <polygon class="cls-2" points="242.1 22.52 235.47 28.66 229.82 29.47 242.1 22.52"/>
  <polygon class="cls-2" points="224.73 10.08 220.12 16.8 230.52 17.91 224.73 10.08"/>
  <polygon class="cls-2" points="220.12 16.8 216.97 15.99 222.59 27.08 220.12 16.8"/>
  <polygon class="cls-3" points="224.22 3.27 228.85 1.78 233.98 2.18 240.32 6.11 243.94 14.75 242.1 22.52 235.47 28.66 229.82 29.47 222.59 27.08 216.97 15.99 219.37 7.7 224.22 3.27"/>
  <path class="cls-4" d="M418.44,336.81c-.27-1.6-3-1.59-4.09-1.67a23.1,23.1,0,0,0-3,0,15.62,15.62,0,0,0-4.7.76.58.58,0,0,0-.44.36c-.07.25.16.48.39.58a2.4,2.4,0,0,0,1.22.19c1.56-.08,3.1-.18,4.67-.17,4.58,0-2.45,1.93-3.94,2.44-5.47,1.88-11.37,2.89-17,4.19-2.81.65-5.62,1.28-8.44,1.87-2.55.52-5.05,1.33-7.67,1.17a.59.59,0,0,1-.41-.14c-.18-.22,0-.54.22-.74a10.19,10.19,0,0,1,1.94-1.25,16.49,16.49,0,0,0,2.52-1.45,1.21,1.21,0,0,0,.43-.72.12.12,0,0,0,0-.1s-.05,0-.08,0a3.05,3.05,0,0,0-1.71.45c-.63.29-1.25.6-1.87.91A21.17,21.17,0,0,0,372.3,346a4.27,4.27,0,0,0-.88.92,1.62,1.62,0,0,0-.21.82s-.55,2.33,9.58.71c3.6-.57,7.19-1.23,10.76-1.95,4.84-1,9.69-2,14.44-3.42a60.25,60.25,0,0,0,6.2-2.22,27.88,27.88,0,0,0,5.6-2.92,1.79,1.79,0,0,0,.57-.59A.79.79,0,0,0,418.44,336.81Z" transform="translate(-163.23 -325.24)"/>
  <text x="-163.23" y="-325.24"/></svg>
