<svg id="Layer_1" data-name="Layer 1" xmlns="http://www.w3.org/2000/svg" viewBox="0 0 265.9 85.48"><defs><style>.cls-1,.cls-2,.cls-4{fill:#fff;}.cls-2,.cls-3,.cls-4{stroke:#25245a;}.cls-2,.cls-3{stroke-linejoin:round;}.cls-3{fill:none;}.cls-4{stroke-miterlimit:10;}</style></defs><path class="cls-1" d="M214.45,343a18.87,18.87,0,0,1,7.62,7.16,19.85,19.85,0,0,1,2.73,10.34,20.66,20.66,0,0,1-2.73,10.5,19.59,19.59,0,0,1-7.62,7.46,22.3,22.3,0,0,1-11,2.73h-23V408a2.79,2.79,0,0,1-.94,2.17,3.76,3.76,0,0,1-4.79,0,2.8,2.8,0,0,1-.95-2.17V343.4a2.83,2.83,0,0,1,.95-2.17,3.43,3.43,0,0,1,2.39-.85h26.39A23.33,23.33,0,0,1,214.45,343Zm-.56,28.1a14.84,14.84,0,0,0,4-10.6,13.67,13.67,0,0,0-4-10.19,14.31,14.31,0,0,0-10.47-3.93h-23v28.95h23A13.76,13.76,0,0,0,213.89,371.05Z" transform="translate(-173.69 -326.53)"/><path class="cls-1" d="M243.79,410.14a3.76,3.76,0,0,1-4.79,0,2.8,2.8,0,0,1-.95-2.17v-68.6a2.8,2.8,0,0,1,.95-2.17,3.76,3.76,0,0,1,4.79,0,2.79,2.79,0,0,1,.94,2.17V408A2.79,2.79,0,0,1,243.79,410.14Z" transform="translate(-173.69 -326.53)"/><path class="cls-1" d="M310.6,360.35a3,3,0,0,1,.94,2.22V408a2.79,2.79,0,0,1-.94,2.17,3.76,3.76,0,0,1-4.79,0,2.8,2.8,0,0,1-.95-2.17v-6.76a22.2,22.2,0,0,1-8.35,7.67A24.31,24.31,0,0,1,284.38,412,25.84,25.84,0,0,1,271,408.48a25.2,25.2,0,0,1-9.36-9.69A28.15,28.15,0,0,1,258.21,385a27.49,27.49,0,0,1,3.45-13.77,25,25,0,0,1,9.41-9.54,27.07,27.07,0,0,1,25.44-.5,20.31,20.31,0,0,1,8.35,7.67v-6.26a3,3,0,0,1,.95-2.22,3.61,3.61,0,0,1,4.79,0Zm-15.15,43.23a19.36,19.36,0,0,0,7.24-7.66A22.78,22.78,0,0,0,305.31,385a22,22,0,0,0-2.62-10.69,19.52,19.52,0,0,0-7.24-7.62A19.83,19.83,0,0,0,285,363.88a20.07,20.07,0,0,0-10.41,2.73,19.3,19.3,0,0,0-7.24,7.51A22.35,22.35,0,0,0,264.78,385a23.21,23.21,0,0,0,2.56,10.95,19,19,0,0,0,7.18,7.66A20,20,0,0,0,285,406.36,19.73,19.73,0,0,0,295.45,403.58Z" transform="translate(-173.69 -326.53)"/><path class="cls-1" d="M370.06,363.73q4.85,5.5,4.84,14.58V408a2.72,2.72,0,0,1-1,2.17,3.46,3.46,0,0,1-2.34.86,3.39,3.39,0,0,1-2.39-.86,2.8,2.8,0,0,1-.95-2.17V378.61A15.46,15.46,0,0,0,364.6,368q-3.62-4.08-11.19-4.09a21.09,21.09,0,0,0-9.07,2,19.08,19.08,0,0,0-7,5.4,11.56,11.56,0,0,0-2.68,7.31V408a2.79,2.79,0,0,1-.94,2.17,3.76,3.76,0,0,1-4.79,0,2.8,2.8,0,0,1-1-2.17v-45.2a2.83,2.83,0,0,1,1-2.17,3.8,3.8,0,0,1,4.79,0,2.82,2.82,0,0,1,.94,2.17v5.55a23,23,0,0,1,8.63-7.21,25,25,0,0,1,11.53-2.88Q365.21,358.23,370.06,363.73Z" transform="translate(-173.69 -326.53)"/><path class="cls-1" d="M391.05,350.82a3.32,3.32,0,0,1-1.23-2.78v-1a3.26,3.26,0,0,1,1.28-2.78,5.74,5.74,0,0,1,3.51-1q4.45,0,4.46,3.74v1a3.39,3.39,0,0,1-1.17,2.78,5.26,5.26,0,0,1-3.4,1A5.45,5.45,0,0,1,391.05,350.82Zm5.84,59.32a3.75,3.75,0,0,1-4.78,0,2.77,2.77,0,0,1-.95-2.17V361.56a2.79,2.79,0,0,1,.95-2.17,3.79,3.79,0,0,1,4.78,0,2.83,2.83,0,0,1,.95,2.17V408A2.8,2.8,0,0,1,396.89,410.14Z" transform="translate(-173.69 -326.53)"/><path class="cls-1" d="M425.34,365.3v33.8q0,3.82,1.56,5.19a6,6,0,0,0,4.12,1.36,7,7,0,0,0,1.67-.25,6.77,6.77,0,0,1,1.56-.25,2.31,2.31,0,0,1,1.73.76,2.46,2.46,0,0,1,.72,1.76,2.77,2.77,0,0,1-1.78,2.37,8.81,8.81,0,0,1-4.23,1,26,26,0,0,1-5.35-.5,8.54,8.54,0,0,1-4.51-3q-2.18-2.52-2.17-8.07V365.3h-8.13a3.39,3.39,0,0,1-2.28-.81,2.62,2.62,0,0,1,0-4,3.43,3.43,0,0,1,2.28-.8h8.13v-11.2a2.8,2.8,0,0,1,.95-2.17,3.76,3.76,0,0,1,4.79,0,2.79,2.79,0,0,1,.94,2.17v11.2h11.14a3.07,3.07,0,0,1,2.17.9,2.75,2.75,0,0,1,.94,2,2.44,2.44,0,0,1-.89,2,3.32,3.32,0,0,1-2.22.76Z" transform="translate(-173.69 -326.53)"/><path class="cls-2" d="M382.6,333l.74,9.1,4.62-6.72Z" transform="translate(-173.69 -326.53)"/><polygon class="cls-2" points="231.63 21.24 219.36 28.18 212.12 25.79 231.63 21.24"/><polygon class="cls-2" points="214.26 8.8 226.86 10.3 220.05 16.63 214.26 8.8"/><polygon class="cls-2" points="220.05 16.63 217.06 20.08 212.12 25.79 211.07 21.44 209.65 15.52 220.05 16.63"/><polygon class="cls-2" points="231.63 21.24 212.12 25.79 220.05 16.63 231.63 21.24"/><polygon class="cls-2" points="226.86 10.3 223.49 0.85 214.26 8.8 226.86 10.3"/><path class="cls-2" d="M382.6,333l14.58-5.57L388,335.33Z" transform="translate(-173.69 -326.53)"/><polygon class="cls-2" points="226.86 10.3 220.05 16.63 233.47 13.46 226.86 10.3"/><polygon class="cls-2" points="231.63 21.24 233.47 13.46 220.05 16.63 231.63 21.24"/><polyline class="cls-2" points="233.47 13.46 226.86 10.3 223.5 0.89 223.49 0.88 223.49 0.85 223.51 0.89 223.49 0.85 223.51 0.89"/><polyline class="cls-2" points="209.65 15.52 208.91 6.42 206.5 14.71 209.65 15.52 212.12 25.79 209.65 15.52"/><polyline class="cls-2" points="223.48 0.87 218.39 0.5 213.75 1.99 208.91 6.42 223.48 0.87"/><polygon class="cls-2" points="233.47 13.46 223.51 0.89 229.85 4.83 233.47 13.46"/><polygon class="cls-2" points="231.63 21.24 225 27.38 219.36 28.18 231.63 21.24"/><polygon class="cls-2" points="214.26 8.8 209.65 15.52 220.05 16.63 214.26 8.8"/><polygon class="cls-2" points="209.65 15.52 206.5 14.71 212.12 25.79 209.65 15.52"/><polygon class="cls-3" points="213.75 1.99 218.39 0.5 223.51 0.89 229.85 4.83 233.47 13.46 231.63 21.24 225 27.38 219.36 28.18 212.12 25.79 206.5 14.71 208.91 6.42 213.75 1.99"/><path class="cls-4" d="M418.44,336.81c-.27-1.6-3-1.59-4.09-1.67a23.1,23.1,0,0,0-3,0,15.62,15.62,0,0,0-4.7.76.58.58,0,0,0-.44.36c-.07.25.16.48.39.58a2.4,2.4,0,0,0,1.22.19c1.56-.08,3.1-.18,4.67-.17,4.58,0-2.45,1.93-3.94,2.44-5.47,1.88-11.37,2.89-17,4.19-2.81.65-5.62,1.28-8.44,1.87-2.55.52-5.05,1.33-7.67,1.17a.59.59,0,0,1-.41-.14c-.18-.22,0-.54.22-.74a10.19,10.19,0,0,1,1.94-1.25,16.49,16.49,0,0,0,2.52-1.45,1.21,1.21,0,0,0,.43-.72.12.12,0,0,0,0-.1s-.05,0-.08,0a3.05,3.05,0,0,0-1.71.45c-.63.29-1.25.6-1.87.91A21.17,21.17,0,0,0,372.3,346a4.27,4.27,0,0,0-.88.92,1.62,1.62,0,0,0-.21.82s-.55,2.33,9.58.71c3.6-.57,7.19-1.23,10.76-1.95,4.84-1,9.69-2,14.44-3.42a60.25,60.25,0,0,0,6.2-2.22,27.88,27.88,0,0,0,5.6-2.92,1.79,1.79,0,0,0,.57-.59A.79.79,0,0,0,418.44,336.81Z" transform="translate(-173.69 -326.53)"/></svg>